<?xml version="1.0" encoding="utf-8"?>
<!-- Generator: Adobe Illustrator 22.0.1, SVG Export Plug-In . SVG Version: 6.00 Build 0)  -->
<svg version="1.1" id="Layer_1" xmlns="http://www.w3.org/2000/svg" xmlns:xlink="http://www.w3.org/1999/xlink" x="0px" y="0px"
	 viewBox="0 0 141.732 141.732" enable-background="new 0 0 141.732 141.732" xml:space="preserve">
<linearGradient id="SVGID_1_" gradientUnits="userSpaceOnUse" x1="68.0747" y1="92.828" x2="99.7114" y2="92.828">
	<stop  offset="0" style="stop-color:#3768AB"/>
	<stop  offset="1" style="stop-color:#1E3666"/>
</linearGradient>
<polygon fill="url(#SVGID_1_)" points="99.5,116.245 68.121,94.184 68.075,69.411 99.711,91.912 "/>
<linearGradient id="SVGID_2_" gradientUnits="userSpaceOnUse" x1="99.5" y1="96.7331" x2="131.457" y2="96.7331">
	<stop  offset="0" style="stop-color:#3768AB"/>
	<stop  offset="1" style="stop-color:#1E3666"/>
</linearGradient>
<polygon fill="url(#SVGID_2_)" points="131.457,88.717 130,113.003 99.5,116.245 99.711,91.912 131.457,88.717 127.098,77.221 "/>
<linearGradient id="SVGID_3_" gradientUnits="userSpaceOnUse" x1="0.1996" y1="69.0081" x2="127.0502" y2="111.4663">
	<stop  offset="0" style="stop-color:#3768AB"/>
	<stop  offset="1" style="stop-color:#1E3666"/>
</linearGradient>
<polygon fill="url(#SVGID_3_)" points="68.121,94.184 30.29,101.395 29.5,76.837 68.075,69.411 "/>
<linearGradient id="SVGID_4_" gradientUnits="userSpaceOnUse" x1="-12.1987" y1="74.4419" x2="73.3842" y2="103.0875">
	<stop  offset="0" style="stop-color:#3768AB"/>
	<stop  offset="1" style="stop-color:#1E3666"/>
</linearGradient>
<polygon fill="url(#SVGID_4_)" points="30.29,101.395 11.235,93.998 11,69.475 29.5,76.837 "/>
<linearGradient id="SVGID_5_" gradientUnits="userSpaceOnUse" x1="50.3746" y1="34.2393" x2="49.7656" y2="48.8573">
	<stop  offset="0" style="stop-color:#3768AB"/>
	<stop  offset="1" style="stop-color:#1E3666"/>
</linearGradient>
<polygon fill="url(#SVGID_5_)" points="56.5,55 43.509,31.246 47.833,56.618 "/>
<linearGradient id="SVGID_6_" gradientUnits="userSpaceOnUse" x1="117.8222" y1="135.8778" x2="22.0894" y2="13.1435">
	<stop  offset="0" style="stop-color:#3768AB"/>
	<stop  offset="1" style="stop-color:#1E3666"/>
</linearGradient>
<polygon fill="url(#SVGID_6_)" points="127.098,77.221 101.021,61.333 72.676,30.659 63.797,26.355 54.143,27.208 43.509,31.246 
	56.5,55 19,62 11,69.475 29.5,76.837 68.075,69.411 99.711,91.912 131.457,88.717 "/>
</svg>
